<?xml version="1.0" encoding="utf-8"?>
<!-- Generator: Adobe Illustrator 24.0.0, SVG Export Plug-In . SVG Version: 6.00 Build 0)  -->
<svg version="1.1"
	 id="Layer_1" inkscape:version="0.48.1 " sodipodi:docname="20111009182803!Apple_Computer_Logo_rainbow.svg" xmlns:cc="http://creativecommons.org/ns#" xmlns:dc="http://purl.org/dc/elements/1.1/" xmlns:inkscape="http://www.inkscape.org/namespaces/inkscape" xmlns:rdf="http://www.w3.org/1999/02/22-rdf-syntax-ns#" xmlns:sodipodi="http://sodipodi.sourceforge.net/DTD/sodipodi-0.dtd" xmlns:svg="http://www.w3.org/2000/svg"
	 xmlns="http://www.w3.org/2000/svg" xmlns:xlink="http://www.w3.org/1999/xlink" x="0px" y="0px" viewBox="0 0 500 550"
	 style="enable-background:new 0 0 500 550;" xml:space="preserve">
<style type="text/css">
	.st0{fill:#61BB46;}
	.st1{fill-rule:evenodd;clip-rule:evenodd;fill:#FDB827;}
	.st2{fill:#F5821F;}
	.st3{fill:#E03A3E;}
	.st4{fill:#963D97;}
	.st5{fill:#009DDC;}
</style>
<sodipodi:namedview  bordercolor="#666666" borderopacity="1" gridtolerance="10" guidetolerance="10" id="namedview21" inkscape:current-layer="Layer_1" inkscape:cx="249.76199" inkscape:cy="277.27301" inkscape:guide-bbox="true" inkscape:pageopacity="0" inkscape:pageshadow="2" inkscape:window-height="738" inkscape:window-maximized="1" inkscape:window-width="1280" inkscape:window-x="-8" inkscape:window-y="-8" inkscape:zoom="0.93590068" objecttolerance="10" pagecolor="#ffffff" showgrid="false" showguides="true">
	</sodipodi:namedview>
<path class="st0" d="M456.8,184.4c-27.9-35-67.4-55.8-105.5-55.8c-27,0-45.7,7.1-62.3,13.4c-13.5,5.1-26.3,10-41.5,10
	c-16.4,0-31-5.2-46.5-10.8c-17.3-6.2-35.2-12.6-57.6-12.6c-43.4,0-87.5,26.6-115.3,69.5c-0.2,0.3-0.4,0.6-0.5,0.9l-1.4,2.3l408.9,0
	l0.4-0.4c6.2-5.3,13.2-10.1,20.7-14.2l1.6-0.9L456.8,184.4z"/>
<path class="st0" d="M342.1,2.3l-0.2-1.4L340.5,1c-29.2,2-63.8,20.7-84.1,45.4c-22.2,27.1-32.5,59.9-27.4,87.5l0.2,1.2l1.2,0
	c0.8,0,1.5,0,2.3,0c29.4,0,62.4-17.2,82.6-43.3l0,0C336.7,64.4,346.5,31.7,342.1,2.3z"/>
<path class="st1" d="M27.5,199.1c-12.1,19-20.5,46.3-22.7,70.2l392.2,0c4.2-26.2,18.3-51.2,40.7-70.2L27.5,199.1z"/>
<path class="st2" d="M406,338.3c-9.6-21.7-12.7-45.5-8.9-68.8l0.3-1.7l-390.9,0l-1.3,0l-0.1,1.3c-2.4,22.1-1.8,45.6,2,70l0.2,1.3
	l399.7,0L406,338.3z"/>
<path class="st3" d="M472,401c-29.7-11.3-53.2-33.5-66.1-62.7l-0.4-0.9l-398.9,0l0.3,1.7C10.6,362.5,17,386,26.1,409l0.4,0.9
	l443.3,0l0.8-1.8c0.8-1.7,1.5-3.4,2.3-5.2l0.6-1.4L472,401z"/>
<path class="st4" d="M25.3,406.9l0.8,2c8.8,22.4,20.1,44.2,33.4,64.6c1.1,1.7,2.3,3.5,3.5,5.2l0.4,0.7l367.3,0l0.4-0.7
	c2.4-3.5,4.7-7,6.4-9.5c14.9-22.8,21.2-35,32.6-60.2l1-2.1L25.3,406.9z"/>
<path class="st5" d="M61.4,476.5l1.6,2.3c21.8,32.5,51.8,69.8,91.3,70.2c0.3,0,0.5,0,0.8,0c16.5,0,27.6-5,39.4-10.3
	c13.9-6.2,28.3-12.6,53.7-12.8c0.3,0,0.5,0,0.8,0c25.1,0,39.1,6.4,52.6,12.7c11.5,5.3,22.4,10.3,38.8,10.3c0.2,0,0.5,0,0.7,0
	c37.8-0.4,68-37.7,90.1-70.1l1.6-2.3L61.4,476.5z"/>
</svg>
