<svg version="1.0" id="Layer_1" xmlns="http://www.w3.org/2000/svg" xmlns:xlink="http://www.w3.org/1999/xlink" x="0px" y="0px"
	 viewBox="0 0 1120.9 402.8" enable-background="new 0 0 1120.9 402.8" xml:space="preserve">
<g>
	<path d="M463.8,68.3c-1.3,0-2.6,0.1-3.8,0.5c-19.3,4.7-38.5,10.1-57.2,16.9c-14,5-27.6,11.2-40,19.4c-5,3.4-9.9,7-14.5,11
		c-1.1,0.9-2.3,1.9-2.6,3.4c1.5,9,10,13.9,17.5,17.6c12.2,5.6,25.9,8.8,39.4,7.3c-4-3.4-9.6-3.9-13.8-6.9c-1.7-1.3-1.8-3.6-2.2-5.5
		c-4.1,0.8-8.1,2.4-12.1,3.4c3.8-2.3,7.9-4,11.8-6.1c21-9,43.6-12.9,66.1-15.9c15.7-1.7,31.7-2.2,46.8-7c-1.2-3.4-1.9-8.4-6.2-8.9
		c-9.4-4.9-14-15.1-19.4-23.7C471.5,70.3,467.7,68.4,463.8,68.3z"/>
	<path d="M657.8,68.3c-3,0-6,0.8-8.1,3c-3,3.2-4.8,7.2-7.1,10.9c-3.3,5.8-7.6,11.1-13.3,14.7c-1.5,1-3.7,0.8-4.5,2.5
		c-1.3,2.1-2.1,4.6-2.6,7c15.2,4.5,31.1,5,46.7,6.9c24.8,3.1,49.8,7.7,72.4,18.8c1.9,1,3.9,2.1,5.8,3.1c-4.1-1.1-8.1-2.4-12.2-3.6
		c-0.7,2-0.7,4.6-2.7,5.9c-4.2,2.8-9.6,3.3-13.4,6.7c6.4,0.9,12.9,0.3,19.3-0.9c12.3-2.4,24.9-7,33.9-16.1l0.1,0
		c2-2.7,3.1-5.8,3.5-9.1c-14.4-13.4-31.9-23.2-50.2-30.2c-20.6-7.9-41.9-14-63.3-19.3C660.5,68.5,659.1,68.3,657.8,68.3L657.8,68.3z
		"/>
	<path d="M560.6,0c-0.9,0-1.7,0.5-1.9,1.7c-3.6,11.7-6.7,23.9-13.4,34.3c-2.4,3.8-5.9,6.9-9.9,9.1c-9.5,5.4-20.1,8.4-30.5,11.7
		c-1.6,0.4-3,1.5-4.1,2.7c1.2,1,2.4,2,4,2.5c11.2,3.6,22.8,6.7,32.8,13.1c5.9,3.7,9.4,10,12.3,16.1h0.1c3.7,8.5,6.2,17.5,9,26.4
		c0.8,2.6,3.8,1.1,3.9-1c2.3-8.5,5.2-16.9,8.3-25.1l-0.2-0.6l0.7-0.2c1.9-3.2,3.4-6.7,5.7-9.6c2.9-4,7.2-6.6,11.4-8.9
		c1.5-0.7,3.1-1.5,4.7-2.2c7.5-3.1,15.2-5.5,22.9-7.8c1.5-0.7,4.1-1.1,3.6-3.3c-1.4-1.2-3.1-1.8-4.8-2.3
		c-10.1-3.1-20.4-6.1-29.6-11.5c-4-2.2-7.4-5.4-9.7-9.3c-6.5-10.3-9.7-22.3-13.2-33.9C562.3,0.6,561.4,0,560.6,0L560.6,0z"/>
</g>
<g>
	<path d="M107.2,77.1c-7.1,0-14.2,0.6-21.2,2C61.7,84,39.8,98.4,24.7,117.9C16.3,128.7,9.9,141,5.8,154c-4.3,13.5-6.2,27.8-5.7,42
		c0.3,7.5,1.2,15,3,22.4c1.2,5.5,2.9,10.9,4.9,16.2l0.1,0c2.9,7.9,6.8,15.3,11.3,22.3c0.7,0.7,1,2.2,2.1,2.2l-0.5,0.1
		c6.2,9,13.7,17,22.2,23.9l0.3,0c7.9,6.6,17,11.7,26.6,15.4c13.5,5.4,28.3,7.4,42.8,6.7c23.6-0.9,47.7-5.5,68.1-17.9
		c6.2-3.2,11.9-7.8,16.7-12.9c0-5,0-10,0.1-15c0-7.9,0.1-15.8-0.1-23.6c0.3-5.2-0.5-10.5,1.6-15.4l-0.2,0.2c2.1-3.9,5.4-7.3,9.5-9.2
		c3.7-2,8.3-2,11.6-4.8c0-0.6-0.1-1.7-0.1-2.2c-2.7-0.4-5.5-0.2-8.2-0.2c-33.3,0-66.6,0-100,0c-2-0.5-4.5,1.3-2.9,3.4
		c2.4,2.3,5.9,2.6,8.9,3.6c9,1.9,17.8,6.1,23.4,13.5c1.8,3.4,3.6,7,3.6,11c0.1,11.7-0.1,23.5,0.1,35.2c-0.4,6-0.5,12.3-3,17.8
		c-4.7,5.2-12.4,3-18.6,3.3c-10.6-1.6-20.6-6.4-28.6-13.5c-7.4-6.6-13.4-14.7-18.1-23.4c-4.2-7.9-7.3-16.4-9.7-25
		c-1.2-5-2.2-10.1-3.1-15.2c-1.1-9.1-1.6-18.3-1.2-27.5c0.7-11.5,2.6-23,5.8-34l0.1,0c3.6-12.1,9.2-23.6,16.7-33.7
		c4.9-5.9,10.2-11.6,16.7-15.8c10.7-7.2,24.3-10.3,36.9-7.2c13.6,3.1,24.9,12.4,33.3,23.3c5.4,7.3,9.8,15.4,13.2,23.8
		c1.5,3.9,2.9,7.9,4,12c0.8,2.5,1.1,5.3,3.1,7.2c3.4-6.3,2.7-13.7,3.4-20.5c0.4-6.9,0.6-13.8,0.6-20.6c-0.3-6.9,0.1-14.1-2.1-20.7
		c-12.4,0.3-24.2-4.2-35-10.1C143.5,81.9,125.4,77.2,107.2,77.1L107.2,77.1z"/>
	<path d="M211.7,148.8c-0.6,0-1.1,0-1.7,0c4.4,4.4,10.4,7.4,13.4,13.1c4.3,8.1,4.3,17.6,4.1,26.5c0.1,7.6,0,15.2,0,22.7
		c0,8.1,0,16.3,0,24.4c4.2-4.1,8.7-8,13.5-11.4c6.6-4.8,13.7-8.9,21.1-12.4c0-7.4,0-14.9,0-22.3c0.1-4.3-0.2-8.5,0.1-12.8
		c0.5-4,4.5-7,8.4-6.6c8.3,0,16.6-0.1,24.9,0.1c6.9,0.2,13.4,3.3,18.6,7.8c6.3,5.9,10.7,13.7,13.5,21.9c0.3-0.3,0.8-1,1.1-1.3
		c1-6.9-0.2-14-1.3-20.9c-1.4-6.6-3.3-13-5.5-19.4c-24.1,0-48.4,0.3-72.4-2.4c-11.1-1.5-22-3.9-32.9-6.3
		C215.1,149.1,213.4,148.9,211.7,148.8L211.7,148.8z"/>
	<path d="M305.1,207.2c-2.5,0-5,0.3-7.3,0.5c-24.1,3.1-47.2,13.2-66.1,28.5c-6.3,5.5-12.1,11.7-17,18.6c-4.1,5.9-7.8,12-10.7,18.6
		c7-4.6,14.2-8.7,21.6-12.5c0.6-0.3,1.2-0.5,1.8-0.8c0,1.2,0,2.4,0,3.6c0.5,6.1-0.8,12.2-2.9,17.9l0.3,0.7l-0.8,0.2
		c-4.3,8.5-12,14.5-18.9,20.7c5.3,0.2,10.4-1.5,15.6-2.5c13.8-3,28-4,42.1-4c21.8,0,43.5,0,65.3,0c2.8-7.1,4.8-14.4,6.4-21.8
		c1-5.8,1.6-11.6,1.5-17.4c-0.1-1.5,0.1-3.7-1.7-4.2c-2.7,7.8-7.1,15.1-12.9,21c-6.1,5.9-14.2,9.7-22.8,9.9
		c-9.6,0.1-19.3,0.1-28.9,0c-2.4,0.1-4.3-1.4-6-2.8c-0.8-1.8-1.6-3.7-1.5-5.8c0-5.2,0-10.4,0-15.6c0.1-4.4,0-8.8,0-13.2
		c1.5-0.4,3.1-0.8,4.6-1.2c3.4-0.8,6.7-1.5,10.1-2.1c17.4-3.1,35.2-4.5,52.9-4.6c1-0.1,2-0.2,3-0.5c-1.1-3-3-5.6-5.7-7.4
		c-3.2-1.9-7-2.7-10.1-4.7c-4.9-4.2-4-11.4-2.9-17C311.4,207.6,308.3,207.1,305.1,207.2L305.1,207.2z"/>
	<path d="M461.3,158.1c-10.2,0-20.5,0-30.7,0.1c-1.5,3,2.7,3.8,4.6,4.9c7.4,3.2,9.2,12.1,8.6,19.4c0,4.6,0,9.1,0,13.7
		c0,12.3-0.1,24.6,0,36.9c0,3.7,0,7.3,0,11c-1.5-1.9-3.1-3.9-4.6-5.8c-6-7.8-12.1-15.4-18-23.1c-3.7-4.7-7.4-9.4-11.1-14.2
		c-3.4-4.4-6.8-8.7-10.2-13.1c-7.7-9.9-15.5-19.8-23.2-29.7c-12.4,0.1-24.8-0.1-37.1,0.1l0,2.3c3,2.4,7.4,3.1,9.7,6.6
		c4.9,6,3.2,14.1,3.6,21.3c0,6.4-0.1,12.7,0,19.1c0,5.7,0,11.4,0,17.1c0,5.6,0,11.1,0,16.7c0,8.1,0.1,16.2,0,24.4
		c-0.1,6,0.7,12.1-1.1,18c-1.2,2.3-2.4,4.6-4.4,6.2c-2.1,1.8-4.9,2.5-7.2,4c-1.1,0.6-0.6,2-0.6,3c20.5-0.1,41,0.1,61.4-0.1
		c0.7-3.2-3-3.9-5.1-5.1c-4-1.7-6.3-5.5-7.7-9.4c-1.2-6.8-0.4-13.7-0.7-20.5c0.1-6.9,0-13.8,0-20.7c0.1-4.4,0-8.9,0-13.3
		c0-3.7,0-7.5,0-11.2c0-5.1,0-10.1,0-15.2l-0.1-2c0.1-0.1,0.4-0.2,0.5-0.3c2,3,4.3,5.8,6.5,8.6c2.5,3.2,5,6.5,7.6,9.7
		c4.7,6,9.3,12,14,17.9c3.9,5.1,7.9,10.2,11.9,15.2c6,7.6,11.8,15.4,17.9,22.8c5,6.7,10.3,13.2,15.4,19.9c2.9,3.7,6.1,7.1,9.5,10.3
		c5.3,4.5,11.9,7.9,18.9,8.3c-1-3.4-3.4-6-4.9-9.1l-0.7-0.3l0.3-0.4c-1.2-4.4-3.1-8.5-3.9-13c-0.7-3.9-1.2-7.9-1.5-11.8
		c-0.4-7.9-0.2-15.9-0.3-23.8c0-8.8,0-17.6,0-26.4c0.1-8.2,0.1-41.6,0-46.9c-0.2-6.4,2-13.7,8.2-16.6c2.1-1.3,5.8-1.8,5.4-5.1
		C481.8,158.2,471.6,158.1,461.3,158.1L461.3,158.1z"/>
	<path d="M555.5,128.4c-2.8,0-5.7,0.2-8.5,0.7c-14,2-27.4,9.4-35.6,21c-3,4.4-5.3,9.3-6.6,14.4l0,0.1c-2.5,9.9-1.2,20.4,2.2,30
		l0.1,0c2.3,6.5,6.1,12.4,10.8,17.4l0.2,0c6,5.9,13.1,10.5,20,15.1c14.2,10.3,29.2,19.5,43.1,30.2c3.9,3.6,6.6,8.3,7.4,13.5
		c0.1,4.5-0.4,9.1-2.1,13.3c-2.3,5-6.4,9.2-11.4,11.5c-5.8,2.9-12.5,2.7-18.8,1.9c-3-0.5-5.9-1.1-8.9-1.9
		c-5.7-1.8-11.1-4.5-16.1-7.8c-1.7-1.3-3.4-2.7-5.1-4.1l-2.4-2.1c-1.5-1.6-3-3.1-4.5-4.7c-3.1-3.6-6-7.4-8.6-11.5
		c-4.2-6.1-6.8-13.1-11.3-19c-1.7,6.1-1.7,12.6-1.8,18.9c0,1.9,0,3.9,0.2,5.8c0.3,5.7,1.1,11.4,2.3,16.9c1.8,7,4.4,14.1,9.5,19.4
		c7.4-4.5,16.8-3.9,24.7-1.1c13,4.2,26.8,5.1,40.4,3.7c6.3-0.6,12.4-2.2,18.3-4.4c8-3.4,15.1-8.8,20.1-16c4.5-6.7,7.3-14.4,8.2-22.4
		l0.1,0.1c0.6-4.4,0.7-8.8,0.7-13.2c-0.3-9.4-2.6-18.7-7.6-26.7c-3.1-4.8-6.9-9.1-11-13c-10-8.4-21.2-15.4-31.9-22.9
		c-9.7-6.7-19.7-13.1-29.2-20.1c-5.7-4.6-9.7-11.7-8.4-19.2c1-4.1,3-8.2,6.7-10.6c6.3-4.3,14.5-4.4,21.8-3.7
		c9.4,1,18.2,5.7,24.2,13.1l0.1,0c3.9,4.7,6.1,10.5,9.6,15.4c6.9,5,14.2,10.1,22.5,12.5c0.1-4.2-1.6-8.1-3-11.9
		c-2.2-5.7-4.4-11.3-7-16.8c-3.1-6.5-6.8-12.7-10.7-18.7c-5.6,2.7-12,1.5-17.8,0.2C572.5,130,564,128.3,555.5,128.4L555.5,128.4z"/>
	<path d="M689.2,158.1c-20.5,0.2-41-0.2-61.5,0.2c-0.2,3.8,4.3,4,6.6,5.7c6.1,3.8,7.5,11.6,7,18.2c0.1,5.5-0.1,11,0.1,16.5l0.1,0.6
		c-0.3,2.2-0.3,4.4-0.2,6.6c0,8.4-0.1,16.9,0,25.4c0,3.4-0.2,6.9,0.3,10.3l-0.1-0.7c0.1,0.4,0.3,1.3,0.4,1.8
		c-0.1,0.2-0.4,0.6-0.5,0.8c-0.3,6.9-0.1,13.8-0.2,20.7c0,5,0,10,0,15.1c-0.2,5.1-1.9,9.9-3.7,14.6l0.2,0.7l-0.6,0.1
		c-3.7,6.6-9.1,12-14.5,17.1c17,0.4,31.4-10,47.7-13.2c6.3-1,12.6-1.9,19-1.8c1.1-3.1-2.7-4-4.8-5.1c-5.4-2.4-8.2-8.3-8.5-13.9
		c0-5,0.1-9.9,0-14.9c0.1-4.9,0.1-9.7,0-14.6c0.1-4.2,3.5-8.2,7.9-8.1c14.1,0,28.1-0.2,42.2,0.1c1.1,0.6,2.3,1.2,3.5,1.5
		c2,2.2,2.5,5.1,3.1,7.9l-0.6,0.6c0.1,0.4,0.4,1.3,0.5,1.7c-0.7,2.3-0.3,4.7-0.3,7.1c0,6.1-0.1,12.1,0,18.2
		c-0.3,5.7-2.9,11.8-8.3,14.2c-2.1,1.2-5.9,1.8-5.2,5.1c20.5,0.1,41,0.2,61.4,0c1.3-3-2.6-3.7-4.5-4.8c-5.4-2.2-8.3-8-8.8-13.6
		c0-4.8,0.1-9.6-0.1-14.4c0.2-7.3,0.1-14.7,0-22c0.2-8.3,0.1-16.6,0-24.9c0.3-11.3-0.1-22.5,0.1-33.8c0-4.6-0.3-9.4,2-13.5
		c1.6-3.4,4.6-5.8,8-7.1c1.6-0.8,4.6-1.9,3.2-4.2c-20.5-0.2-40.9-0.2-61.4,0c-0.5,3.3,3.3,3.8,5.5,5.1c5.2,2.4,7.6,8.2,8.2,13.7
		c-0.2,10.4,0,20.9-0.1,31.3c0.1,2.6-1.4,4.7-3.1,6.6c-1.7,0.7-3.3,1.5-5.1,1.4c-13,0-26.1,0-39.1,0c-3.4,0.4-6.4-1.7-8.2-4.4
		c-1.1-5.9-0.4-11.8-0.6-17.7c0-2.1,0-4.1,0-6.2c0-1.7,0-3.3,0-5c-0.6-7.1,0.7-16,7.8-19.6C685.9,162.1,690.5,161.6,689.2,158.1
		L689.2,158.1z"/>
	<path d="M804.9,207.2c-1.7,0-3.4,0.1-5.2,0.3c-1.8,0.1-3.3,1-4.8,1.9c0.9,4.8,1.7,10.2-0.9,14.6c-1,1.9-3.2,2.8-4.5,4.4
		c-4.7,0.4-9.9,3.3-12.2,7.8c-0.7,0.9-1.2,2.9,0.5,2.7c14.2,0.1,28.4,0.9,42.5,2.8c0-1.9,0-3.8,0-5.7c0-3.3,0-6.6,0-9.8
		c0-5.7,0-11.4,0-17C815.3,208.2,810.1,207.2,804.9,207.2z"/>
	<path d="M864.9,227.1c0,8.7-0.1,17.4,0,26.1l0.3-0.5c14,5.6,27.4,12.4,40,20.7c-4.3-10-10.5-19.1-17.6-27.3
		C880.9,238.6,873.2,232.3,864.9,227.1L864.9,227.1z"/>
	<path d="M822.4,158.1c-6.9,0-13.7,0.1-20.6,0.4c0,0.5,0.1,1.5,0.1,1.9c5.4,2.9,12.2,2.8,16.8,7.2c4.5,3.4,5.9,9.3,5.3,14.7
		c0.1,15,0,30,0,44.9c0.1,8.5-0.1,17.1,0,25.6c-0.2,3.5-0.1,6.9,0,10.4c-0.1,5.4,0.1,10.7-0.2,16.1c-2,7.4-9.3,11.6-16.4,13
		c-2.2,0.8-6.2,0.9-6,4.1c2.5,0.3,5,0.3,7.5,0.1c0.7,0,2,0,2.7,0c22.7,0.4,45.4,0,68.1,0.2c1.5-0.1,4.5,0.4,3.8-2
		c-2.8-2.2-6.6-2.3-9.8-3.5c-4.7-1.4-8.8-4.5-11.4-8.7l-0.8-0.2l0.2-0.8c-1.1-4.3-0.8-8.7-0.8-13.1c0-7.3,0-14.6,0-21.9
		c0-9.5,0-19,0-28.6c0.1-10.7,0-21.4,0-32c0.3-4.8-0.9-10,1.9-14.3c3.1-5.2,9-7.9,14.7-9.1c2.3-0.8,6-0.8,6.2-4
		c-9-0.8-18.1-0.1-27.1-0.4C845.3,158.3,833.9,158.1,822.4,158.1L822.4,158.1z"/>
	<path d="M1120.8,89.6c-8.6,0.9-17,3.6-25.5,5.2c-23.2,5.2-46.4,10.3-69.5,15.5c-1.3,0-3.7,1.8-1.8,3c5.4,2,11.8,2.5,15.9,7.1
		c5.6,5.2,6.3,13.1,5.9,20.3c-0.2,6.7-0.1,13.4,0,20.1c-0.2,10.6-0.1,21.3,0,32c-0.2,6.5,0,13.1-0.1,19.6
		c-10.1-8.5-20.2-17-30.4-25.5c-10.5-8.9-21-17.6-31.5-26.4c-12.7-10.7-25.5-21.4-38.2-32.1c-13.6,2-27.2,4.1-40.8,6
		c-2.1,0.7-6.6-0.3-6.2,3.1c3.4,3.1,8.7,2.2,12.7,4.5c7,3,10.6,10.8,9.9,18.1c-0.1,10.3-0.1,20.6,0,30.9c0,8.7-0.1,17.4,0,26.1
		c-0.1,8-0.1,16,0,24c0,7,0,14.1,0,21.1c0.3,5.6-0.1,11.3-2.6,16.5c-2.8,5.2-7.1,9.5-12.5,12c-2.4,1.3-5.2,2-7.1,4
		c-0.9,2.4,2.3,2.1,3.8,2.2c6.1-0.1,12.2,0.2,18.3-0.2h0.6c16,0.4,32.1,0,48.1,0.2c8.7-0.2,17.5,0.4,26.2-0.3
		c1.6-1.9-1.1-3.1-2.4-3.8c-5.2-2.3-10.3-5-13.9-9.5c-4.2-5.3-6.2-12.1-5.6-18.9c0-5.4,0-10.9,0-16.3c0-9.6,0-19.2,0-28.9
		c0-8.1,0-16.2,0-24.3c0-5.3,0-10.5,0-15.8c4.4,3.6,8.6,7.3,13,10.9c6.9,5.8,13.7,11.6,20.6,17.4c12.6,10.7,25.4,21.3,38,32
		c0,0.7,0,2.1,0,2.8c0.3,7.8,1.1,15.6,3.5,23.1c1.3,4.7,3,9.3,5.3,13.6c2.6,5.1,5.7,9.9,9.5,14.2c7.7,9.1,17.6,16.3,28.6,20.8
		c1.8,0.7,4.8,1.5,5.7-1c0.8-10,0.2-20,0.3-30c0.3-11.1,0-22.3,0.1-33.4c-0.1-12.1,0.2-24.2-0.2-36.2c0.5-14.1,0.2-28.2,0.1-42.4
		c0.2-16.1,0-32.2,0.1-48.2c0.4-11.5,8.1-21.6,17.6-27.5C1118,93.5,1121.5,92.5,1120.8,89.6L1120.8,89.6z"/>
</g>
<g>
	<path d="M263.8,341.6c-13.7,0.1-27.4-0.1-41.1,0.1c0.2,2.5,3.2,2.3,5,3.2c4.2,1.2,7.9,5,7.8,9.6c0,11.7,0,23.4,0,35.1
		c0.2,4.6-3.5,8.5-7.8,9.7c-1.8,0.9-4.7,0.7-5.1,3.2c13.7,0.3,27.5,0,41.2,0.2c1.7-0.2,3.9,0.6,5-1.2c-2.1-1.2-4.4-1.8-6.6-2.7
		c-3.7-1.5-6.7-5.1-6.5-9.2c-0.1-11,0-22,0-33c-0.2-3,0.4-6.3,2.7-8.5c2.7-3.1,7.2-3.2,10.5-5.4
		C267.6,341.1,265.5,341.8,263.8,341.6L263.8,341.6z"/>
	<path d="M349.1,341.5c-10.5,0.4-20.9-0.1-31.4,0.2l0.3,1.6c4.3,1.6,9.1,4.1,9.6,9.3c0.3,12.3,0.1,24.6,0.1,36.9
		c0.2,4.5-3.3,8.3-7.4,9.6c-2,0.9-4.6,0.9-5.6,3.1c7,0.7,14.1,0.1,21.1,0.3c2-0.2,4.5,0.6,6.1-1c-2.2-1.8-5.3-2.9-6.7-5.6
		c-1.5-2.6-1.6-5.6-1.5-8.5c0.1-10.8-0.1-21.7,0.1-32.5c2.3,4.3,3.7,9.1,6.3,13.3l-0.3,0.9c0.3,0.4,0.9,1.2,1.2,1.6
		c4.5,10.7,9.5,21.3,14.1,32c2.9-1.4,4.5-4.4,5.8-7.2c5.9-13.1,11.7-26.3,17.6-39.4c0,10.8,0,21.5,0,32.3c0.1,3.4-0.6,7.1-3.1,9.6
		c-1.6,1.5-4.5,1.8-4.8,4.4c12,0.2,24.1,0,36.2,0.1c1.7-0.3,4,0.7,5.1-1.2c-3.1-1.8-6.9-2.1-9.6-4.4c-2.2-1.8-3.6-4.6-3.5-7.4
		c0-11.7,0-23.4,0-35.1c-0.1-4,2.3-8,6.1-9.5c1.6-0.9,4-1.1,4.3-3.3c-10.2-0.2-20.4,0-30.6-0.1c-5,10.9-9.8,21.9-14.7,32.8
		C358.9,363.5,354.2,352.4,349.1,341.5L349.1,341.5z"/>
	<path d="M464.4,341.6c-1.4,0-2.8,0-4,0.8c1.6,1.3,3.6,2,5.4,2.9c3.4,1.6,5.4,5.4,5.3,9.2c0,11.7,0,23.3,0,35
		c0.2,4.6-3.4,8.5-7.6,9.7c-1.8,0.9-4.9,0.7-5.2,3.3c15.3,0.1,30.6,0.1,45.9,0c-0.2-2.3-2.7-2.3-4.3-3c-4-1-7.9-4.2-8.4-8.5
		c-0.3-4.1,0-8.2-0.1-12.3c6.8,0,13.8,0.3,20.2-2.3c5.6-2.2,11.1-6,13.2-11.9c1.9-5,0.1-10.7-3.6-14.3c-5.8-5.9-14.3-8.4-22.3-8.5
		c-11,0-22,0-33,0C465.3,341.6,464.9,341.6,464.4,341.6L464.4,341.6z M491.4,345.9c5.8,0.3,11,4.5,12.6,10.1
		c1.7,5.3-0.3,11.3-4.4,14.9c-1.2,0.6-2.4,1.4-3.5,2.2c-1.5,0.5-3.1,0.9-4.7,1.1C491.4,364.8,491.4,355.3,491.4,345.9L491.4,345.9z"
		/>
	<path d="M604.6,340.2c0.9,2,1.8,4.1,2.6,6.1c-2.4,5.1-4.7,10.2-6.9,15.4c-0.4,1-0.9,1.9-1.3,2.9c-4.3,9.5-8.4,19-12.7,28.5
		c-1.3,2.8-3.6,5.2-6.6,6.1c-1.9,0.9-4.7,0.7-5.3,3.2c7.5,0.3,14.9,0,22.4,0.2c1.7-0.2,4,0.6,5.1-1.2c-2.9-2.1-8.3-1.6-9-5.9
		c0.2-4.7,3.1-8.7,4.8-13c8.6,0.1,17.2,0,25.8,0.1c1.5,3.6,3.5,7.1,4.6,10.9c0.7,2.2-0.5,4.8-2.8,5.4c-2,1.1-5.3,0.8-5.9,3.5
		c13.6,0,27.2,0.2,40.8-0.1c-0.6-2.5-3.5-2.4-5.3-3.2c-3.4-0.9-5.7-3.8-6.9-6.9c-7.7-17.4-15.5-34.7-23.2-52.1
		C618,340.2,611.3,340.2,604.6,340.2L604.6,340.2z M610.5,353.5c3.4,7.7,6.9,15.4,10.3,23.2h-20.6
		C603.6,368.9,607,361.2,610.5,353.5z"/>
	<path d="M744.7,341.6c-6.9,0-13.7,1.6-19.7,5.1c-7.9,4.5-14.1,12.6-15.2,21.8c-0.8,5.1,0.4,10.2,2.2,15c0.2,0.3,0.7,1,1,1.3
		c5.4,10.6,17.2,16.9,28.9,17.7c10.1,0.7,21.4-1.7,28.4-9.6c2.5-3,5.1-6.4,4.9-10.5c-2.5,2.4-4,5.7-6.8,7.8
		c-8.4,7-21.9,6.1-29.6-1.5c-10.3-9.9-8.9-29.2,2.7-37.5c7.3-5.2,18.2-4.1,24.5,2.3c3,2.7,4.5,6.4,6.8,9.5c0.9-5.9,0.5-12-0.6-17.8
		c-2.4,0.2-4.7,0.8-7.1,0.9c-2.8-0.5-5.3-1.8-8-2.6C753,342.3,748.9,341.7,744.7,341.6z"/>
	<path d="M829.3,341.6c0,6.1,0,12.3,0,18.4c1.2,0.1,2.4,0,2.7-1.4c1.3-2.8,2.4-6,5.2-7.8c4.8-3.5,11-2.1,16.5-2.3
		c0,13.7,0,27.4,0,41.1c0.2,4.6-3.6,8.6-7.9,9.7c-1.8,0.8-4.5,0.8-5,3.1c15.4,0.2,30.9,0.5,46.3-0.2c-2.1-3.3-7-2.4-9.6-5.2
		c-5.8-4.8-2.6-13.1-3.7-19.5c0-0.5,0-1.3,0-1.8c0.4-9.1,0.1-18.1,0.2-27.2c5.9,0.2,12.9-1.2,17.6,3.4c3,2.2,2.6,7,6.1,8.7
		c1.2-6.2,0.2-12.7,0.5-19C875.1,341.6,852.2,341.6,829.3,341.6z"/>
</g>
</svg>
